<!-- Blue Archive Logo LR -->
<svg width="1804" height="500" xmlns="http://www.w3.org/2000/svg">
  <rect width="100%" height="100%" fill="#000" fill-opacity="-99" />
  
  <!-- 绘制左侧文字 -->
  <g transform="matrix(1,0,-0.4,1,639.2519803466796,340)">
          <path d="M765 821L246 821C119 818 68 766 65 637L65 492C66 394 121 351 244 350L483 350C592 349 613 339 614 287L614 207C613 164 601 159 492 158L70 158L70 0L530 0C639 1 683 7 724 27C771 50 801 109 802 181L802 359C801 428 786 460 743 487C710 506 692 508 594 509L339 509C263 510 251 516 250 554L250 606C251 654 262 663 324 664L765 664Z" fill="#128AFA" transform="translate(0, 0) scale(0.168, -0.168)" /><path d="M668 243L668 450C664 580 621 623 491 627L218 627C110 626 56 560 55 429L55 202C55 62 132-4 288 0L677 0L677 150L318 150C241 150 225 158 221 202L221 243ZM221 378L221 411C222 467 232 476 293 477L423 477C475 476 488 464 489 416L489 378Z" fill="#128AFA" transform="translate(144.816, 0) scale(0.168, -0.168)" /><path d="M203 627L18 627L229 0L457 0L675 627L478 627L339 153Z" fill="#128AFA" transform="translate(267.79200000000003, 0) scale(0.168, -0.168)" /><path d="M45 664L500 664L192 0L401 0L708 687L708 821L45 821Z" fill="#128AFA" transform="translate(384.216, 0) scale(0.168, -0.168)" /><path d="M68 627L68 0L244 0L244 477L369 477C475 476 485 466 487 359L487 0L659 0L659 400C664 569 616 623 460 627Z" fill="#128AFA" transform="translate(510.72, 0) scale(0.168, -0.168)" />
        </g>
  
  <!-- 绘制光环 -->
  
        <!-- 内联光环 -->
        <g transform="translate(1117.6079803466796, -12.5) scale(1.05)">
          <path fill="#302c2c" d="M175.342 76.479c-68.301 12.394-42.089 69.828 54.456 119.318C246.405 204.31 251 205.895 251 203.109c0-.525-4.661-3.181-10.358-5.903-27.45-13.112-54.898-31.438-70.673-47.186-59.967-59.862 10.741-90.165 126.863-54.369 100.859 31.092 175.059 94.575 146.216 125.099l-2.126 2.25h17.027l1.718-3.25c2.535-4.795 2.253-15.77-.585-22.73-20.179-49.496-133.135-108.354-231.258-120.502-14.762-1.827-42.512-1.848-52.482-.039" fill-rule="evenodd"/>
        </g>
  
  <!-- 绘制右侧文字 -->
  <g transform="matrix(1,0,-0.4,1,1272.1079803466796,340)">
          <path d="M23 0L238 0L403 258L580 0L793 0L514 419L779 821L565 821L407 575L251 821L36 821L297 407Z" fill="#2B2B2B" transform="translate(0, 0) scale(0.168, -0.168)" />
        </g>
  
  <!-- 绘制空心部分 -->
  <path d="M 1414.1079803466796,136L 1451.1079803466796,153L 1289.1079803466796,410L 1278.1079803466796,403 Z" fill="white" />
  
  <!-- 绘制十字 -->
  
        <!-- 内联十字 -->
        <g transform="translate(1117.4829803466796, -10.625) scale(0.2625)">
          <path fill="rgb(16,140,252)" d="M 1464.67 127.926 L 1465.41 129.621 C 1454.32 158.516 1439.41 186.577 1425.87 214.399 L 1371.2 327.987 C 1364.92 340.975 1359.75 354.469 1353.43 367.424 C 1341.55 391.771 1328.67 415.669 1317.19 440.206 C 1297.54 482.239 1278.26 524.519 1256.19 565.391 C 1273.89 575.274 1293.08 582.394 1311.41 590.983 L 1442.26 652.039 L 1795.95 819.577 L 1871.01 854.864 C 1883.55 860.787 1913.15 871.516 1922.05 880.905 C 1891.32 871.01 1861.1 857.519 1831.05 845.706 L 1633.88 767.603 L 1371.95 663.772 C 1323.98 644.596 1274.68 628.068 1228.49 604.774 C 1184.43 675.464 1142.43 747.591 1099.5 818.986 L 832.052 1264.06 L 728.24 1436.34 C 711.871 1463.53 696.906 1492.2 678.996 1518.36 L 678.43 1517.83 C 685.253 1501.9 694.807 1486.82 703.074 1471.55 L 746.93 1389.49 C 761.024 1364.76 773.957 1339.17 787.406 1314.07 L 866.496 1166.48 L 1069.58 787.669 L 1179.43 583.123 L 614.977 324.18 L 457.876 251.504 C 439.201 242.982 420.576 234.352 402.001 225.613 C 391.409 220.666 379.943 216.281 370.125 209.922 C 386.807 212.61 404.217 222.117 420.205 227.99 C 493.32 254.846 565.19 285.551 637.577 314.315 L 1045.43 475.528 L 1163.84 523.002 C 1179.31 529.234 1195.13 534.715 1210.39 541.402 C 1216.13 527.362 1226.27 513.432 1234.18 500.436 L 1290.76 408.828 L 1398.61 233.588 C 1413.59 208.849 1429.06 184.652 1444.4 160.166 C 1451.01 149.632 1456.72 137.505 1464.67 127.926 z"/>
        </g>
</svg>